<?xml version="1.0" encoding="UTF-8"?>
<svg xmlns="http://www.w3.org/2000/svg" width="300" height="300" viewBox="0 0 300 300" role="img" aria-labelledby="title">
  <title id="title">Dexter highlight logomark</title>
  <defs>
    <clipPath id="dexter-highlight-circle">
      <circle cx="150" cy="150" r="150" />
    </clipPath>
  </defs>
  <g clip-path="url(#dexter-highlight-circle)">
    <path
      d="M0 0 C0.94 0.728 1.879 1.457 2.848 2.207 C8.005 6.325 12.94 10.677 17.812 15.125 C18.603 15.843 18.603 15.843 19.41 16.576 C20.972 18.021 22.485 19.507 24 21 C24.521 21.484 25.043 21.968 25.58 22.467 C30.428 27.402 30.88 31.405 30.836 38.151 C30.853 39.147 30.871 40.143 30.888 41.17 C30.936 44.451 30.942 47.73 30.945 51.012 C30.967 53.305 30.99 55.598 31.016 57.891 C31.062 62.695 31.089 67.498 31.1 72.302 C31.115 78.435 31.174 84.566 31.248 90.697 C31.302 95.434 31.334 100.17 31.361 104.907 C31.375 107.166 31.395 109.426 31.421 111.685 C31.575 126.757 31.521 139.82 21.789 152.242 C15.49 158.471 7.613 162.58 0 167 C-1.689 167.997 -3.377 168.994 -5.065 169.993 C-11.2 173.626 -17.354 177.226 -23.518 180.809 C-27.634 183.202 -31.741 185.608 -35.844 188.023 C-36.916 188.653 -37.988 189.283 -39.093 189.932 C-41.084 191.102 -43.073 192.273 -45.061 193.447 C-68.609 207.24 -68.609 207.24 -81.197 204.526 C-88.107 202.575 -94.001 199.542 -100.188 195.938 C-101.19 195.361 -102.192 194.785 -103.225 194.191 C-124.268 181.976 -140.583 171.022 -147.715 146.547 C-148.629 142.624 -149.031 138.904 -149.02 134.883 C-148.783 126.739 -148.783 126.739 -151.852 119.48 C-153.407 118.203 -155.006 116.978 -156.645 115.809 C-164.522 109.76 -167.53 98.638 -168.797 89.184 C-169.257 84.237 -169.269 79.277 -169.312 74.312 C-169.342 73.185 -169.371 72.058 -169.4 70.896 C-169.409 69.813 -169.417 68.73 -169.426 67.613 C-169.44 66.631 -169.455 65.65 -169.47 64.638 C-168.857 61.195 -167.808 60.044 -165 58 C-162.526 57.546 -162.526 57.546 -159.797 57.609 C-158.327 57.629 -158.327 57.629 -156.828 57.648 C-155.812 57.682 -154.797 57.715 -153.75 57.75 C-152.719 57.768 -151.688 57.786 -150.625 57.805 C-148.082 57.852 -145.542 57.918 -143 58 C-142.878 56.845 -142.755 55.69 -142.629 54.5 C-142.093 50.212 -141.106 46.154 -139.938 42 C-139.751 41.321 -139.565 40.641 -139.373 39.941 C-138.92 38.293 -138.461 36.646 -138 35 C-139.328 34.617 -139.328 34.617 -140.684 34.227 C-148.846 31.208 -155.337 24.838 -159 17 C-162.267 9.066 -162.319 -0.438 -159.25 -8.438 C-153.688 -20.43 -145.226 -28.353 -132.971 -33.3 C-90.281 -48.464 -33.719 -26.142 0 0 Z"
      fill="#FEFBF4"
      transform="translate(219,74)"
    />
  </g>
</svg>
