<?xml version="1.0" encoding="UTF-8"?>
<svg id="Layer_1" xmlns="http://www.w3.org/2000/svg" version="1.1" viewBox="0 0 750 250">
  <!-- Generator: Adobe Illustrator 30.0.0, SVG Export Plug-In . SVG Version: 2.1.1 Build 123)  -->
  <defs>
    <style>
      .st0 {
        fill: #fff;
      }
    </style>
  </defs>
  <path class="st0" d="M11.79,181.18v-112.36h89.11c4.26,0,8.14,1.04,11.62,3.12s6.29,4.87,8.43,8.35c2.13,3.49,3.2,7.36,3.2,11.63v66.16c0,4.17-1.07,8.01-3.2,11.55-2.13,3.54-4.94,6.34-8.43,8.43s-7.36,3.12-11.62,3.12H11.79ZM99.65,156.83v-63.67h-63.83v63.67h63.83Z"/>
  <path class="st0" d="M141.94,181.18v-112.36h103.78v24.34h-79.27v19.66h63.83v24.34h-63.83v19.66h79.27v24.34h-103.78Z"/>
  <path class="st0" d="M259.6,181.18v-8.27l40.1-47.91-40.1-47.91v-8.27h25.12l31.21,36.99,30.9-36.99h25.12v8.27l-40.26,47.91,40.26,47.75v8.43h-25.12l-31.21-36.83-30.9,36.83h-25.12Z"/>
  <path class="st0" d="M426.27,181.18v-88.01h-44.01v-24.34h112.36v24.34h-44.01v88.01h-24.34Z"/>
  <path class="st0" d="M506.63,181.18v-112.36h103.77v24.34h-79.27v19.66h63.83v24.34h-63.83v19.66h79.27v24.34h-103.77Z"/>
  <path class="st0" d="M625.85,181.18v-112.2h89.11c4.26,0,8.14,1.04,11.63,3.12,3.48,2.08,6.29,4.89,8.43,8.43,2.13,3.54,3.2,7.39,3.2,11.55v29.02c0,4.16-1.07,8.01-3.2,11.55-2.13,3.54-4.94,6.35-8.43,8.43-3.49,2.08-7.36,3.12-11.63,3.12l-64.92.16v36.83h-24.19ZM713.71,119.85v-26.69h-63.67v26.69h63.67ZM713.09,181.18l-32.61-38.86h31.68l25.9,30.59v8.27h-24.97Z"/>
</svg>